# xmcd
#
# Track frame offsets: 
#        150
#        13235
#        25847
#        40707
#        56370
#        96475
#        131945
#        148842
#        182365
#        206890
#        224377
#        247175
#        270670
#        286582
#
# Disc length: 4028 seconds
#
# Revision: 3
# Processed by: cddbd v1.5.2PL0 Copyright (c) Steve Scherf et al.
# Submitted via: ExactAudioCopyFreeDBPlugin 1.0
#
DISCID=d70fba0e
DTITLE=Curtis Mayfield - Curtis Mayfield and The Impressions:  The Antho
DTITLE=logy, 1961-1977
DYEAR=1992
DGENRE=Rhythm and Blues
TTITLE0=Fool for You
TTITLE1=This is My Country
TTITLE2=Choice of Colors
TTITLE3=Check Out Your Mind
TTITLE4=Move on Up
TTITLE5=(Don't Worry) If There's a Hell Below We're All Going to Go
TTITLE6=The Makings of You
TTITLE7=Beautiful Brother of Mine
TTITLE8=Freddie's Dead
TTITLE9=Superfly
TTITLE10=Pusherman
TTITLE11=So in Love
TTITLE12=Only You Babe (single edit)
TTITLE13=Do Do Wap is Strong in Here (single edit)
EXTD=
EXTT0=
EXTT1=
EXTT2=
EXTT3=
EXTT4=
EXTT5=
EXTT6=
EXTT7=
EXTT8=
EXTT9=
EXTT10=
EXTT11=
EXTT12=
EXTT13=
PLAYORDER=
